<svg width="367" height="320" viewBox="0 0 367 320" fill="none" xmlns="http://www.w3.org/2000/svg">
<rect width="367" height="320" rx="32" fill="#0D0D0D"/>
<path d="M69.962 187.459C62.3729 187.459 53.7341 185.117 48.1634 184.713C45.9028 184.551 43.5614 184.794 41.2201 185.844C42.5119 180.11 43.8844 172.276 44.611 161.131C50.0203 178.817 62.0499 185.036 69.8006 185.036C81.265 185.036 88.6927 170.984 75.775 162.1C71.6575 159.273 66.8133 157.093 63.5839 155.478C52.6846 150.228 41.2201 143.767 41.2201 131.734C41.2201 118.893 56.3177 112.352 69.8813 112.432C77.3897 112.432 84.1715 114.694 89.6615 115.097C92.0029 115.259 94.2635 115.017 96.6048 113.967C95.3131 119.701 93.9405 127.535 93.2947 138.68C87.8854 120.993 78.9237 114.936 71.1731 114.936C62.6151 114.936 50.9891 130.2 71.496 139.164C84.6559 144.979 101.61 150.228 101.691 164.281C101.691 172.841 96.1204 179.706 88.6927 183.421C83.4449 186.086 76.7438 187.459 69.962 187.459Z" fill="#FAFAF8"/>
<path d="M127.833 187.136C126.703 187.378 125.492 187.459 124.2 187.459C108.457 187.459 99.0915 175.506 99.1722 162.181C99.4144 127.858 139.782 129.311 143.981 143.767C144.707 146.271 143.981 149.017 141.801 151.036C139.782 152.974 136.714 153.782 134.373 154.105C127.026 154.912 123.393 149.34 128.56 144.737C130.094 143.364 132.435 137.71 128.722 136.661C123.797 135.449 118.064 142.879 115.723 151.44C113.947 158.224 112.413 173.245 119.437 181.16C121.859 183.825 124.846 185.117 127.43 184.794C133.243 184.148 130.013 174.133 125.492 170.822C138.087 160.727 146.887 168.722 141.558 177.687C139.379 181.483 134.857 185.844 127.833 187.136Z" fill="#FAFAF8"/>
<path d="M190.468 160.808C190.468 175.829 181.991 187.459 166.651 187.459C151.311 187.459 142.996 175.829 142.996 160.808C142.996 145.786 151.311 134.238 166.651 134.238C181.991 134.238 190.468 145.786 190.468 160.808ZM170.769 137.307C158.174 138.76 150.988 185.924 163.099 184.471C174.886 183.098 181.103 136.095 170.769 137.307Z" fill="#FAFAF8"/>
<path d="M237.037 160.808C237.037 175.829 228.559 187.459 213.22 187.459C197.88 187.459 189.564 175.829 189.564 160.808C189.564 145.786 197.88 134.238 213.22 134.238C228.559 134.238 237.037 145.786 237.037 160.808ZM217.337 137.307C204.742 138.76 197.557 185.924 209.667 184.471C221.455 183.098 227.671 136.095 217.337 137.307Z" fill="#FAFAF8"/>
<path d="M273.997 134.076C287.884 134.076 289.176 152.328 286.915 162.423C284.009 174.779 275.451 187.54 262.291 187.54C259.061 187.54 256.074 186.409 254.702 183.421C255.186 192.304 256.316 200.704 258.012 207.568H236.778C241.622 187.782 241.622 155.478 236.778 135.691H258.012C256.881 140.295 255.993 145.625 255.347 151.278C259.465 139.891 266.893 134.076 273.997 134.076ZM261.08 183.502C270.041 180.11 277.227 146.271 268.427 142.556C263.825 140.537 256.72 148.209 254.782 163.231C254.217 168.076 254.136 173.649 254.944 179.948C255.993 182.936 258.335 184.551 261.08 183.502Z" fill="#FAFAF8"/>
<ellipse cx="309.245" cy="157.916" rx="16.5347" ry="16.5397" fill="#FF3131"/>
</svg>
