<svg width="607" height="204" viewBox="0 0 607 204" fill="none" xmlns="http://www.w3.org/2000/svg">
<path d="M61.3607 160.155C45.1587 160.155 26.716 155.156 14.8231 154.294C9.99696 153.949 4.99848 154.466 0 156.707C2.75778 144.467 5.68793 127.745 7.23918 103.955C18.7874 141.709 44.4692 154.983 61.0159 154.983C85.4912 154.983 101.349 124.987 73.7707 106.024C64.9802 99.9899 54.6386 95.3353 47.7441 91.8874C24.4753 80.6818 0 66.8903 0 41.2037C0 13.7931 32.2316 -0.170817 61.1883 0.00157693C77.2179 0.00157693 91.6963 4.8286 103.417 5.69057C108.415 6.03535 113.241 5.51817 118.24 3.27706C115.482 15.517 112.552 32.2392 111.173 56.0295C99.6249 18.2753 80.4928 5.34578 63.9461 5.34578C45.6758 5.34578 20.8557 37.9282 64.6355 57.0639C92.7304 69.4762 128.926 80.6818 129.099 110.678C129.099 128.952 117.206 143.605 101.349 151.536C90.145 157.225 75.839 160.155 61.3607 160.155Z" fill="#0D0D0D"/>
<path d="M184.909 159.466C182.496 159.983 179.911 160.155 177.153 160.155C143.543 160.155 123.549 134.641 123.721 106.196C124.238 32.9288 210.419 36.0319 219.382 66.8903C220.933 72.2345 219.382 78.0959 214.728 82.4057C210.419 86.5432 203.869 88.2671 198.871 88.9567C183.186 90.6806 175.429 78.7855 186.461 68.959C189.735 66.0284 194.734 53.9608 186.805 51.7197C176.291 49.1338 164.054 64.994 159.055 83.2677C155.263 97.7488 151.988 129.814 166.984 146.709C172.155 152.398 178.532 155.156 184.048 154.466C196.458 153.087 189.563 131.71 179.911 124.642C206.799 103.093 225.587 120.16 214.211 139.296C209.557 147.398 199.905 156.707 184.909 159.466Z" fill="#0D0D0D"/>
<path d="M318.627 103.265C318.627 135.331 300.529 160.155 267.781 160.155C235.032 160.155 217.279 135.331 217.279 103.265C217.279 71.2002 235.032 46.5479 267.781 46.5479C300.529 46.5479 318.627 71.2002 318.627 103.265ZM276.571 53.0988C249.683 56.2019 234.343 156.88 260.197 153.777C285.362 150.846 298.633 50.5129 276.571 53.0988Z" fill="#0D0D0D"/>
<path d="M418.045 103.265C418.045 135.331 399.947 160.155 367.199 160.155C334.45 160.155 316.697 135.331 316.697 103.265C316.697 71.2002 334.45 46.5479 367.199 46.5479C399.947 46.5479 418.045 71.2002 418.045 103.265ZM375.989 53.0988C349.101 56.2019 333.761 156.88 359.615 153.777C384.78 150.846 398.051 50.5129 375.989 53.0988Z" fill="#0D0D0D"/>
<path d="M496.952 46.2031C526.599 46.2031 529.356 85.164 524.53 106.713C518.325 133.089 500.055 160.328 471.96 160.328C465.066 160.328 458.688 157.914 455.758 151.536C456.792 170.499 459.205 188.428 462.825 203.081H417.494C427.835 160.845 427.835 91.8874 417.494 49.651H462.825C460.412 59.4774 458.516 70.8554 457.137 82.9229C465.927 58.6154 481.785 46.2031 496.952 46.2031ZM469.375 151.708C488.507 144.467 503.847 72.2345 485.059 64.3044C475.235 59.9946 460.067 76.372 455.93 108.437C454.724 118.781 454.551 130.676 456.275 144.123C458.516 150.501 463.514 153.949 469.375 151.708Z" fill="#0D0D0D"/>
<ellipse cx="571.202" cy="97.0921" rx="35.2996" ry="35.3062" fill="#FF3131"/>
</svg>
